{
	"asset":{
		"generator":"Khronos glTF Blender I/O v4.5.48",
		"version":"2.0"
	},
	"scene":0,
	"scenes":[
		{
			"name":"Scene",
			"nodes":[
				0,
				1,
				2,
				3,
				4
			]
		}
	],
	"nodes":[
		{
			"mesh":0,
			"name":"Texto 4",
			"scale":[
				1.8821049928665161,
				1.5906803607940674,
				1
			],
			"translation":[
				-0.6693487167358398,
				-0.6177665591239929,
				0
			]
		},
		{
			"mesh":1,
			"name":"Texto 3",
			"scale":[
				1.8821049928665161,
				1.5906803607940674,
				1
			],
			"translation":[
				-0.6693487167358398,
				-0.3517831563949585,
				0
			]
		},
		{
			"mesh":2,
			"name":"Texto 2",
			"scale":[
				1.8821049928665161,
				1.5906803607940674,
				1
			],
			"translation":[
				-0.6693487167358398,
				-0.08792006969451904,
				0
			]
		},
		{
			"mesh":3,
			"name":"Texto",
			"scale":[
				1.8821049928665161,
				1.5906803607940674,
				1
			],
			"translation":[
				-0.6693487167358398,
				0.21927309036254883,
				0
			]
		},
		{
			"name":"working_cam_n3d"
		}
	],
	"materials":[
		{
			"doubleSided":true,
			"name":"Material predeterminado",
			"pbrMetallicRoughness":{
				"metallicFactor":0,
				"roughnessFactor":0.30000001192092896
			}
		},
		{
			"doubleSided":true,
			"name":"Material predeterminado 3",
			"pbrMetallicRoughness":{
				"baseColorFactor":[
					0.5000001192092896,
					0.5000001192092896,
					0.5000001192092896,
					1
				],
				"metallicFactor":0,
				"roughnessFactor":0.30000001192092896
			}
		}
	],
	"meshes":[
		{
			"name":"TextMesh#",
			"primitives":[
				{
					"attributes":{
						"POSITION":0,
						"NORMAL":1,
						"TEXCOORD_0":2
					},
					"indices":3,
					"material":0
				},
				{
					"attributes":{
						"POSITION":4,
						"NORMAL":5,
						"TEXCOORD_0":6
					},
					"indices":7,
					"material":1
				}
			]
		},
		{
			"name":"TextMesh#.001",
			"primitives":[
				{
					"attributes":{
						"POSITION":8,
						"NORMAL":9,
						"TEXCOORD_0":10
					},
					"indices":11,
					"material":0
				},
				{
					"attributes":{
						"POSITION":12,
						"NORMAL":13,
						"TEXCOORD_0":14
					},
					"indices":15,
					"material":1
				}
			]
		},
		{
			"name":"TextMesh#.002",
			"primitives":[
				{
					"attributes":{
						"POSITION":16,
						"NORMAL":17,
						"TEXCOORD_0":18
					},
					"indices":19,
					"material":0
				},
				{
					"attributes":{
						"POSITION":20,
						"NORMAL":21,
						"TEXCOORD_0":22
					},
					"indices":23,
					"material":1
				}
			]
		},
		{
			"name":"TextMesh#.003",
			"primitives":[
				{
					"attributes":{
						"POSITION":24,
						"NORMAL":25,
						"TEXCOORD_0":26
					},
					"indices":27,
					"material":0
				},
				{
					"attributes":{
						"POSITION":28,
						"NORMAL":29,
						"TEXCOORD_0":30
					},
					"indices":31,
					"material":1
				}
			]
		}
	],
	"accessors":[
		{
			"bufferView":0,
			"componentType":5126,
			"count":264822,
			"max":[
				1.977790355682373,
				0.0630175843834877,
				1.19209286886246e-09
			],
			"min":[
				0.002658691257238388,
				-0.34606054425239563,
				-0.009999999776482582
			],
			"type":"VEC3"
		},
		{
			"bufferView":1,
			"componentType":5126,
			"count":264822,
			"type":"VEC3"
		},
		{
			"bufferView":2,
			"componentType":5126,
			"count":264822,
			"type":"VEC2"
		},
		{
			"bufferView":3,
			"componentType":5125,
			"count":973998,
			"type":"SCALAR"
		},
		{
			"bufferView":4,
			"componentType":5126,
			"count":65454,
			"max":[
				1.977790355682373,
				0.0630175843834877,
				-0.009999999776482582
			],
			"min":[
				0.002658691257238388,
				-0.34606054425239563,
				-0.009999999776482582
			],
			"type":"VEC3"
		},
		{
			"bufferView":5,
			"componentType":5126,
			"count":65454,
			"type":"VEC3"
		},
		{
			"bufferView":6,
			"componentType":5126,
			"count":65454,
			"type":"VEC2"
		},
		{
			"bufferView":7,
			"componentType":5123,
			"count":194382,
			"type":"SCALAR"
		},
		{
			"bufferView":8,
			"componentType":5126,
			"count":17158,
			"max":[
				0.46257659792900085,
				0.07001952826976776,
				1.19209286886246e-09
			],
			"min":[
				0.0005996733671054244,
				-0.0012695342302322388,
				-0.009999999776482582
			],
			"type":"VEC3"
		},
		{
			"bufferView":9,
			"componentType":5126,
			"count":17158,
			"type":"VEC3"
		},
		{
			"bufferView":10,
			"componentType":5126,
			"count":17158,
			"type":"VEC2"
		},
		{
			"bufferView":11,
			"componentType":5123,
			"count":63012,
			"type":"SCALAR"
		},
		{
			"bufferView":12,
			"componentType":5126,
			"count":4254,
			"max":[
				0.46257659792900085,
				0.07001952826976776,
				-0.009999999776482582
			],
			"min":[
				0.0005996733671054244,
				-0.0012695342302322388,
				-0.009999999776482582
			],
			"type":"VEC3"
		},
		{
			"bufferView":13,
			"componentType":5126,
			"count":4254,
			"type":"VEC3"
		},
		{
			"bufferView":14,
			"componentType":5126,
			"count":4254,
			"type":"VEC2"
		},
		{
			"bufferView":15,
			"componentType":5123,
			"count":12564,
			"type":"SCALAR"
		},
		{
			"bufferView":16,
			"componentType":5126,
			"count":28209,
			"max":[
				1.0939370393753052,
				0.09966795891523361,
				1.19209286886246e-09
			],
			"min":[
				0.008476564660668373,
				-0.035273436456918716,
				-0.009999999776482582
			],
			"type":"VEC3"
		},
		{
			"bufferView":17,
			"componentType":5126,
			"count":28209,
			"type":"VEC3"
		},
		{
			"bufferView":18,
			"componentType":5126,
			"count":28209,
			"type":"VEC2"
		},
		{
			"bufferView":19,
			"componentType":5123,
			"count":103749,
			"type":"SCALAR"
		},
		{
			"bufferView":20,
			"componentType":5126,
			"count":6937,
			"max":[
				1.0939370393753052,
				0.09966795891523361,
				-0.009999999776482582
			],
			"min":[
				0.008476564660668373,
				-0.035273436456918716,
				-0.009999999776482582
			],
			"type":"VEC3"
		},
		{
			"bufferView":21,
			"componentType":5126,
			"count":6937,
			"type":"VEC3"
		},
		{
			"bufferView":22,
			"componentType":5126,
			"count":6937,
			"type":"VEC2"
		},
		{
			"bufferView":23,
			"componentType":5123,
			"count":20673,
			"type":"SCALAR"
		},
		{
			"bufferView":24,
			"componentType":5126,
			"count":24345,
			"max":[
				0.6216000914573669,
				0.07001952826976776,
				1.19209286886246e-09
			],
			"min":[
				0.003399658016860485,
				-0.0012695357436314225,
				-0.009999999776482582
			],
			"type":"VEC3"
		},
		{
			"bufferView":25,
			"componentType":5126,
			"count":24345,
			"type":"VEC3"
		},
		{
			"bufferView":26,
			"componentType":5126,
			"count":24345,
			"type":"VEC2"
		},
		{
			"bufferView":27,
			"componentType":5123,
			"count":86283,
			"type":"SCALAR"
		},
		{
			"bufferView":28,
			"componentType":5126,
			"count":5819,
			"max":[
				0.6216000914573669,
				0.07001952826976776,
				-0.009999999776482582
			],
			"min":[
				0.003399658016860485,
				-0.0012695357436314225,
				-0.009999999776482582
			],
			"type":"VEC3"
		},
		{
			"bufferView":29,
			"componentType":5126,
			"count":5819,
			"type":"VEC3"
		},
		{
			"bufferView":30,
			"componentType":5126,
			"count":5819,
			"type":"VEC2"
		},
		{
			"bufferView":31,
			"componentType":5123,
			"count":17199,
			"type":"SCALAR"
		}
	],
	"bufferViews":[
		{
			"buffer":0,
			"byteLength":3177864,
			"byteOffset":0,
			"target":34962
		},
		{
			"buffer":0,
			"byteLength":3177864,
			"byteOffset":3177864,
			"target":34962
		},
		{
			"buffer":0,
			"byteLength":2118576,
			"byteOffset":6355728,
			"target":34962
		},
		{
			"buffer":0,
			"byteLength":3895992,
			"byteOffset":8474304,
			"target":34963
		},
		{
			"buffer":0,
			"byteLength":785448,
			"byteOffset":12370296,
			"target":34962
		},
		{
			"buffer":0,
			"byteLength":785448,
			"byteOffset":13155744,
			"target":34962
		},
		{
			"buffer":0,
			"byteLength":523632,
			"byteOffset":13941192,
			"target":34962
		},
		{
			"buffer":0,
			"byteLength":388764,
			"byteOffset":14464824,
			"target":34963
		},
		{
			"buffer":0,
			"byteLength":205896,
			"byteOffset":14853588,
			"target":34962
		},
		{
			"buffer":0,
			"byteLength":205896,
			"byteOffset":15059484,
			"target":34962
		},
		{
			"buffer":0,
			"byteLength":137264,
			"byteOffset":15265380,
			"target":34962
		},
		{
			"buffer":0,
			"byteLength":126024,
			"byteOffset":15402644,
			"target":34963
		},
		{
			"buffer":0,
			"byteLength":51048,
			"byteOffset":15528668,
			"target":34962
		},
		{
			"buffer":0,
			"byteLength":51048,
			"byteOffset":15579716,
			"target":34962
		},
		{
			"buffer":0,
			"byteLength":34032,
			"byteOffset":15630764,
			"target":34962
		},
		{
			"buffer":0,
			"byteLength":25128,
			"byteOffset":15664796,
			"target":34963
		},
		{
			"buffer":0,
			"byteLength":338508,
			"byteOffset":15689924,
			"target":34962
		},
		{
			"buffer":0,
			"byteLength":338508,
			"byteOffset":16028432,
			"target":34962
		},
		{
			"buffer":0,
			"byteLength":225672,
			"byteOffset":16366940,
			"target":34962
		},
		{
			"buffer":0,
			"byteLength":207498,
			"byteOffset":16592612,
			"target":34963
		},
		{
			"buffer":0,
			"byteLength":83244,
			"byteOffset":16800112,
			"target":34962
		},
		{
			"buffer":0,
			"byteLength":83244,
			"byteOffset":16883356,
			"target":34962
		},
		{
			"buffer":0,
			"byteLength":55496,
			"byteOffset":16966600,
			"target":34962
		},
		{
			"buffer":0,
			"byteLength":41346,
			"byteOffset":17022096,
			"target":34963
		},
		{
			"buffer":0,
			"byteLength":292140,
			"byteOffset":17063444,
			"target":34962
		},
		{
			"buffer":0,
			"byteLength":292140,
			"byteOffset":17355584,
			"target":34962
		},
		{
			"buffer":0,
			"byteLength":194760,
			"byteOffset":17647724,
			"target":34962
		},
		{
			"buffer":0,
			"byteLength":172566,
			"byteOffset":17842484,
			"target":34963
		},
		{
			"buffer":0,
			"byteLength":69828,
			"byteOffset":18015052,
			"target":34962
		},
		{
			"buffer":0,
			"byteLength":69828,
			"byteOffset":18084880,
			"target":34962
		},
		{
			"buffer":0,
			"byteLength":46552,
			"byteOffset":18154708,
			"target":34962
		},
		{
			"buffer":0,
			"byteLength":34398,
			"byteOffset":18201260,
			"target":34963
		}
	],
	"buffers":[
		{
			"byteLength":18235660,
			"uri":"PROP_DGCS_B.bin"
		}
	]
}
