{
	"asset":{
		"generator":"Khronos glTF Blender I/O v4.5.48",
		"version":"2.0"
	},
	"scene":0,
	"scenes":[
		{
			"name":"Scene",
			"nodes":[
				0,
				1,
				2,
				3,
				4
			]
		}
	],
	"nodes":[
		{
			"mesh":0,
			"name":"Texto",
			"scale":[
				4.555180072784424,
				3.5106334686279297,
				1
			],
			"translation":[
				0.8762710094451904,
				3.5425662994384766,
				-0.00952941831201315
			]
		},
		{
			"mesh":1,
			"name":"Texto 2",
			"rotation":[
				0.001547440537251532,
				0,
				0,
				1
			],
			"scale":[
				4.555180072784424,
				3.5106093883514404,
				1.0000240802764893
			],
			"translation":[
				-1.203217625617981,
				3.0226926803588867,
				-0.02435719408094883
			]
		},
		{
			"mesh":2,
			"name":"Texto 3",
			"scale":[
				4.555180072784424,
				3.5106334686279297,
				1
			],
			"translation":[
				0.8928985595703125,
				1.8875914812088013,
				-0.01452941820025444
			]
		},
		{
			"mesh":3,
			"name":"Texto 4",
			"scale":[
				4.555180072784424,
				3.5106334686279297,
				1
			],
			"translation":[
				-1.571425437927246,
				2.376424551010132,
				0
			]
		},
		{
			"name":"working_cam_n3d"
		}
	],
	"materials":[
		{
			"doubleSided":true,
			"name":"Material predeterminado 5",
			"pbrMetallicRoughness":{
				"baseColorFactor":[
					0.3005438446998596,
					0.006512091029435396,
					0.07036010921001434,
					1
				],
				"metallicFactor":0,
				"roughnessFactor":0.30000001192092896
			}
		},
		{
			"doubleSided":true,
			"name":"Material predeterminado 6",
			"pbrMetallicRoughness":{
				"baseColorFactor":[
					0.5,
					0.5,
					0.5,
					1
				],
				"metallicFactor":0,
				"roughnessFactor":0.30000001192092896
			}
		}
	],
	"meshes":[
		{
			"name":"text#",
			"primitives":[
				{
					"attributes":{
						"POSITION":0,
						"NORMAL":1,
						"TEXCOORD_0":2
					},
					"indices":3,
					"material":0
				}
			]
		},
		{
			"name":"text#.001",
			"primitives":[
				{
					"attributes":{
						"POSITION":4,
						"NORMAL":5,
						"TEXCOORD_0":6
					},
					"indices":7,
					"material":1
				}
			]
		},
		{
			"name":"text#.002",
			"primitives":[
				{
					"attributes":{
						"POSITION":8,
						"NORMAL":9,
						"TEXCOORD_0":10
					},
					"indices":11,
					"material":1
				}
			]
		},
		{
			"name":"text#.003",
			"primitives":[
				{
					"attributes":{
						"POSITION":12,
						"NORMAL":13,
						"TEXCOORD_0":14
					},
					"indices":15,
					"material":1
				}
			]
		}
	],
	"accessors":[
		{
			"bufferView":0,
			"componentType":5126,
			"count":32722,
			"max":[
				0.8966528177261353,
				0.14581052958965302,
				1.19209286886246e-09
			],
			"min":[
				-0.8599438071250916,
				-0.04532226547598839,
				-0.009999999776482582
			],
			"type":"VEC3"
		},
		{
			"bufferView":1,
			"componentType":5126,
			"count":32722,
			"type":"VEC3"
		},
		{
			"bufferView":2,
			"componentType":5126,
			"count":32722,
			"type":"VEC2"
		},
		{
			"bufferView":3,
			"componentType":5123,
			"count":115020,
			"type":"SCALAR"
		},
		{
			"bufferView":4,
			"componentType":5126,
			"count":29842,
			"max":[
				0.37666013836860657,
				0.055546872317790985,
				0
			],
			"min":[
				-0.3783007264137268,
				-0.017109375447034836,
				-0.009999999776482582
			],
			"type":"VEC3"
		},
		{
			"bufferView":5,
			"componentType":5126,
			"count":29842,
			"type":"VEC3"
		},
		{
			"bufferView":6,
			"componentType":5126,
			"count":29842,
			"type":"VEC2"
		},
		{
			"bufferView":7,
			"componentType":5123,
			"count":105600,
			"type":"SCALAR"
		},
		{
			"bufferView":8,
			"componentType":5126,
			"count":309042,
			"max":[
				0.828784167766571,
				0.06943359971046448,
				1.19209286886246e-09
			],
			"min":[
				-0.8003661632537842,
				-0.5013866424560547,
				-0.009999999776482582
			],
			"type":"VEC3"
		},
		{
			"bufferView":9,
			"componentType":5126,
			"count":309042,
			"type":"VEC3"
		},
		{
			"bufferView":10,
			"componentType":5126,
			"count":309042,
			"type":"VEC2"
		},
		{
			"bufferView":11,
			"componentType":5125,
			"count":1090236,
			"type":"SCALAR"
		},
		{
			"bufferView":12,
			"componentType":5126,
			"count":21529,
			"max":[
				0.24360352754592896,
				0.06943359225988388,
				1.19209286886246e-09
			],
			"min":[
				-0.24086913466453552,
				-0.0013671905035153031,
				-0.009999999776482582
			],
			"type":"VEC3"
		},
		{
			"bufferView":13,
			"componentType":5126,
			"count":21529,
			"type":"VEC3"
		},
		{
			"bufferView":14,
			"componentType":5126,
			"count":21529,
			"type":"VEC2"
		},
		{
			"bufferView":15,
			"componentType":5123,
			"count":76080,
			"type":"SCALAR"
		}
	],
	"bufferViews":[
		{
			"buffer":0,
			"byteLength":392664,
			"byteOffset":0,
			"target":34962
		},
		{
			"buffer":0,
			"byteLength":392664,
			"byteOffset":392664,
			"target":34962
		},
		{
			"buffer":0,
			"byteLength":261776,
			"byteOffset":785328,
			"target":34962
		},
		{
			"buffer":0,
			"byteLength":230040,
			"byteOffset":1047104,
			"target":34963
		},
		{
			"buffer":0,
			"byteLength":358104,
			"byteOffset":1277144,
			"target":34962
		},
		{
			"buffer":0,
			"byteLength":358104,
			"byteOffset":1635248,
			"target":34962
		},
		{
			"buffer":0,
			"byteLength":238736,
			"byteOffset":1993352,
			"target":34962
		},
		{
			"buffer":0,
			"byteLength":211200,
			"byteOffset":2232088,
			"target":34963
		},
		{
			"buffer":0,
			"byteLength":3708504,
			"byteOffset":2443288,
			"target":34962
		},
		{
			"buffer":0,
			"byteLength":3708504,
			"byteOffset":6151792,
			"target":34962
		},
		{
			"buffer":0,
			"byteLength":2472336,
			"byteOffset":9860296,
			"target":34962
		},
		{
			"buffer":0,
			"byteLength":4360944,
			"byteOffset":12332632,
			"target":34963
		},
		{
			"buffer":0,
			"byteLength":258348,
			"byteOffset":16693576,
			"target":34962
		},
		{
			"buffer":0,
			"byteLength":258348,
			"byteOffset":16951924,
			"target":34962
		},
		{
			"buffer":0,
			"byteLength":172232,
			"byteOffset":17210272,
			"target":34962
		},
		{
			"buffer":0,
			"byteLength":152160,
			"byteOffset":17382504,
			"target":34963
		}
	],
	"buffers":[
		{
			"byteLength":17534664,
			"uri":"Sin_nombre_B.bin"
		}
	]
}
