{
	"asset":{
		"generator":"Khronos glTF Blender I/O v4.5.48",
		"version":"2.0"
	},
	"scene":0,
	"scenes":[
		{
			"name":"Scene",
			"nodes":[
				8,
				9,
				10,
				11,
				12,
				13,
				14,
				15,
				16
			]
		}
	],
	"nodes":[
		{
			"name":"bear",
			"rotation":[
				0.9634314775466919,
				-0.034404780715703964,
				0.15213261544704437,
				0.2178802490234375
			],
			"scale":[
				0.5765296816825867,
				0.5765296220779419,
				0.5765298008918762
			]
		},
		{
			"name":"bear_rig",
			"rotation":[
				-0.6984525918960571,
				-0.11029052734375,
				-0.1102905347943306,
				0.6984525322914124
			],
			"scale":[
				3.6342368125915527,
				3.6342365741729736,
				3.6342363357543945
			]
		},
		{
			"name":"Body_low",
			"rotation":[
				0.6984525918960571,
				-0.1102905198931694,
				0.11029052734375,
				0.6984525322914124
			],
			"scale":[
				0.16469699144363403,
				0.16469699144363403,
				0.16469696164131165
			],
			"translation":[
				-1.9461838006973267,
				3.681959390640259,
				5.970804691314697
			]
		},
		{
			"name":"Smychok1_low",
			"rotation":[
				0.6984525918960571,
				-0.11029050499200821,
				0.11029050499200821,
				0.6984525322914124
			],
			"scale":[
				18.66663360595703,
				18.66663360595703,
				18.666637420654297
			],
			"translation":[
				-1.3955167531967163,
				2.811288595199585,
				0.8762368559837341
			]
		},
		{
			"children":[
				0,
				1,
				2,
				3
			],
			"name":"RootNode"
		},
		{
			"children":[
				4
			],
			"name":"Node_3"
		},
		{
			"children":[
				5
			],
			"name":"1cfada12136a4813b85c77304109027f.fbx",
			"rotation":[
				0.70710688829422,
				0,
				0,
				0.7071066498756409
			]
		},
		{
			"children":[
				6
			],
			"name":"RootNode (model correction matrix)"
		},
		{
			"children":[
				7
			],
			"name":"RootNode (gltf orientation matrix)",
			"rotation":[
				-0.70710688829422,
				0,
				0,
				0.7071066498756409
			]
		},
		{
			"mesh":0,
			"name":"Body_low_Cello_paint_0"
		},
		{
			"mesh":1,
			"name":"Smychok1_low_Cello_paint_0"
		},
		{
			"name":"Node_387"
		},
		{
			"name":"Node_382",
			"rotation":[
				0.6984525322914124,
				-0.11029050499200821,
				0.1102905198931694,
				0.6984525918960571
			],
			"scale":[
				0.16469700634479523,
				0.16469700634479523,
				0.16469696164131165
			],
			"translation":[
				-1.9461838006973267,
				3.681959390640259,
				5.9708051681518555
			]
		},
		{
			"name":"Node_384",
			"rotation":[
				0.6984525322914124,
				-0.11029050499200821,
				0.1102905198931694,
				0.6984525918960571
			],
			"scale":[
				18.66663360595703,
				18.6666316986084,
				18.666637420654297
			],
			"translation":[
				-1.3955168724060059,
				2.811288833618164,
				0.8762369751930237
			]
		},
		{
			"name":"Node_386",
			"rotation":[
				0.9634314179420471,
				-0.03440484032034874,
				0.1521325707435608,
				0.21788042783737183
			],
			"scale":[
				0.5765297412872314,
				0.5765295624732971,
				0.5765297412872314
			]
		},
		{
			"mesh":2,
			"name":"0"
		},
		{
			"mesh":3,
			"name":"Texto",
			"rotation":[
				0.6967049837112427,
				0,
				0,
				0.7173577547073364
			],
			"scale":[
				3.6634106636047363,
				18.69648551940918,
				3.869358777999878
			],
			"translation":[
				-0.8369832038879395,
				0.30737295746803284,
				-0.792216956615448
			]
		}
	],
	"animations":[
		{
			"channels":[
				{
					"sampler":0,
					"target":{
						"node":15,
						"path":"weights"
					}
				}
			],
			"name":"bear_rig|bear_rig|bear_suit.001|bear_suit.001",
			"samplers":[
				{
					"input":20,
					"interpolation":"LINEAR",
					"output":21
				}
			]
		}
	],
	"materials":[
		{
			"doubleSided":true,
			"name":"Cello_paint",
			"pbrMetallicRoughness":{
				"metallicFactor":0,
				"roughnessFactor":0.8211145401000977
			}
		},
		{
			"doubleSided":true,
			"name":"bear_paint",
			"pbrMetallicRoughness":{
				"metallicFactor":0,
				"roughnessFactor":0.8026010394096375
			}
		}
	],
	"meshes":[
		{
			"name":"Body_low_Cello_paint_0",
			"primitives":[
				{
					"attributes":{
						"POSITION":0,
						"NORMAL":1,
						"TEXCOORD_0":2
					},
					"indices":3,
					"material":0
				}
			]
		},
		{
			"name":"Smychok1_low_Cello_paint_0",
			"primitives":[
				{
					"attributes":{
						"POSITION":4,
						"NORMAL":5,
						"TEXCOORD_0":6
					},
					"indices":7,
					"material":0
				}
			]
		},
		{
			"extras":{
				"targetNames":[
					"target_0",
					"target_1"
				]
			},
			"name":"0",
			"primitives":[
				{
					"attributes":{
						"POSITION":8,
						"NORMAL":9,
						"TEXCOORD_0":10
					},
					"indices":11,
					"material":1,
					"targets":[
						{
							"POSITION":12,
							"NORMAL":13
						},
						{
							"POSITION":14,
							"NORMAL":15
						}
					]
				}
			],
			"weights":[
				0,
				0
			]
		},
		{
			"name":"DEMO",
			"primitives":[
				{
					"attributes":{
						"POSITION":16,
						"NORMAL":17,
						"TEXCOORD_0":18
					},
					"indices":19
				}
			]
		}
	],
	"accessors":[
		{
			"bufferView":0,
			"componentType":5126,
			"count":1882,
			"max":[
				-1.3678568601608276,
				3.3702704906463623,
				6.382264137268066
			],
			"min":[
				-2.567580461502075,
				-0.11505386233329773,
				5.769669055938721
			],
			"type":"VEC3"
		},
		{
			"bufferView":1,
			"componentType":5126,
			"count":1882,
			"type":"VEC3"
		},
		{
			"bufferView":2,
			"componentType":5126,
			"count":1882,
			"type":"VEC2"
		},
		{
			"bufferView":3,
			"componentType":5123,
			"count":5802,
			"type":"SCALAR"
		},
		{
			"bufferView":4,
			"componentType":5126,
			"count":177,
			"max":[
				-0.8615813255310059,
				6.301114082336426,
				0.45889127254486084
			],
			"min":[
				-3.394861936569214,
				5.152199745178223,
				-1.3240787982940674
			],
			"type":"VEC3"
		},
		{
			"bufferView":5,
			"componentType":5126,
			"count":177,
			"type":"VEC3"
		},
		{
			"bufferView":6,
			"componentType":5126,
			"count":177,
			"type":"VEC2"
		},
		{
			"bufferView":7,
			"componentType":5123,
			"count":354,
			"type":"SCALAR"
		},
		{
			"bufferView":8,
			"componentType":5126,
			"count":4761,
			"max":[
				3.347970962524414,
				7.60407829284668,
				1.0694695711135864
			],
			"min":[
				-3.2459750175476074,
				1.87346613407135,
				-1.4002755880355835
			],
			"type":"VEC3"
		},
		{
			"bufferView":9,
			"componentType":5126,
			"count":4761,
			"type":"VEC3"
		},
		{
			"bufferView":10,
			"componentType":5126,
			"count":4761,
			"type":"VEC2"
		},
		{
			"bufferView":11,
			"componentType":5123,
			"count":25026,
			"type":"SCALAR"
		},
		{
			"componentType":5126,
			"count":4761,
			"max":[
				0.013995394110679626,
				0.04416036605834961,
				0.0005559921264648438
			],
			"min":[
				-0.009368166327476501,
				-0.09432601928710938,
				-0.01874411106109619
			],
			"sparse":{
				"count":406,
				"indices":{
					"bufferView":12,
					"componentType":5123
				},
				"values":{
					"bufferView":13
				}
			},
			"type":"VEC3"
		},
		{
			"bufferView":14,
			"componentType":5126,
			"count":4761,
			"type":"VEC3"
		},
		{
			"componentType":5126,
			"count":4761,
			"max":[
				0.005396485328674316,
				0.007681369781494141,
				0.08034136146306992
			],
			"min":[
				-0.03739669919013977,
				-0.09085512161254883,
				0
			],
			"sparse":{
				"count":84,
				"indices":{
					"bufferView":15,
					"componentType":5123
				},
				"values":{
					"bufferView":16
				}
			},
			"type":"VEC3"
		},
		{
			"bufferView":17,
			"componentType":5126,
			"count":4761,
			"type":"VEC3"
		},
		{
			"bufferView":18,
			"componentType":5126,
			"count":273,
			"max":[
				2.432000160217285,
				0,
				0.009000000543892384
			],
			"min":[
				0.017000000923871994,
				0,
				-0.6820000410079956
			],
			"type":"VEC3"
		},
		{
			"bufferView":19,
			"componentType":5126,
			"count":273,
			"type":"VEC3"
		},
		{
			"bufferView":20,
			"componentType":5126,
			"count":273,
			"type":"VEC2"
		},
		{
			"bufferView":21,
			"componentType":5123,
			"count":801,
			"type":"SCALAR"
		},
		{
			"bufferView":22,
			"componentType":5126,
			"count":195,
			"max":[
				8.083333333333334
			],
			"min":[
				0
			],
			"type":"SCALAR"
		},
		{
			"bufferView":23,
			"componentType":5126,
			"count":390,
			"type":"SCALAR"
		}
	],
	"bufferViews":[
		{
			"buffer":0,
			"byteLength":22584,
			"byteOffset":0,
			"target":34962
		},
		{
			"buffer":0,
			"byteLength":22584,
			"byteOffset":22584,
			"target":34962
		},
		{
			"buffer":0,
			"byteLength":15056,
			"byteOffset":45168,
			"target":34962
		},
		{
			"buffer":0,
			"byteLength":11604,
			"byteOffset":60224,
			"target":34963
		},
		{
			"buffer":0,
			"byteLength":2124,
			"byteOffset":71828,
			"target":34962
		},
		{
			"buffer":0,
			"byteLength":2124,
			"byteOffset":73952,
			"target":34962
		},
		{
			"buffer":0,
			"byteLength":1416,
			"byteOffset":76076,
			"target":34962
		},
		{
			"buffer":0,
			"byteLength":708,
			"byteOffset":77492,
			"target":34963
		},
		{
			"buffer":0,
			"byteLength":57132,
			"byteOffset":78200,
			"target":34962
		},
		{
			"buffer":0,
			"byteLength":57132,
			"byteOffset":135332,
			"target":34962
		},
		{
			"buffer":0,
			"byteLength":38088,
			"byteOffset":192464,
			"target":34962
		},
		{
			"buffer":0,
			"byteLength":50052,
			"byteOffset":230552,
			"target":34963
		},
		{
			"buffer":0,
			"byteLength":812,
			"byteOffset":280604
		},
		{
			"buffer":0,
			"byteLength":4872,
			"byteOffset":281416
		},
		{
			"buffer":0,
			"byteLength":57132,
			"byteOffset":286288,
			"target":34962
		},
		{
			"buffer":0,
			"byteLength":168,
			"byteOffset":343420
		},
		{
			"buffer":0,
			"byteLength":1008,
			"byteOffset":343588
		},
		{
			"buffer":0,
			"byteLength":57132,
			"byteOffset":344596,
			"target":34962
		},
		{
			"buffer":0,
			"byteLength":3276,
			"byteOffset":401728,
			"target":34962
		},
		{
			"buffer":0,
			"byteLength":3276,
			"byteOffset":405004,
			"target":34962
		},
		{
			"buffer":0,
			"byteLength":2184,
			"byteOffset":408280,
			"target":34962
		},
		{
			"buffer":0,
			"byteLength":1602,
			"byteOffset":410464,
			"target":34963
		},
		{
			"buffer":0,
			"byteLength":780,
			"byteOffset":412068
		},
		{
			"buffer":0,
			"byteLength":1560,
			"byteOffset":412848
		}
	],
	"buffers":[
		{
			"byteLength":414408,
			"uri":"Sin_nombre.bin"
		}
	]
}
